<?xml version="1.0" encoding="utf-8"?>
<svg version="1.1" xmlns:xlink="http://www.w3.org/1999/xlink" width="40px" height="50px" xmlns="http://www.w3.org/2000/svg">
  <defs>
    <filter x="439px" y="77px" width="40px" height="50px" filterUnits="userSpaceOnUse" id="filter2">
      <feOffset dx="1" dy="1" in="SourceAlpha" result="shadowOffsetInner" />
      <feGaussianBlur stdDeviation="2.5" in="shadowOffsetInner" result="shadowGaussian" />
      <feComposite in2="shadowGaussian" operator="atop" in="SourceAlpha" result="shadowComposite" />
      <feColorMatrix type="matrix" values="0 0 0 0 0  0 0 0 0 0  0 0 0 0 0  0 0 0 0.698039215686274 0  " in="shadowComposite" />
    </filter>
    <g id="widget3">
      <path d="M 458 120.036928468354  C 452.2 110.40734059591  443.5 104.629587872444  443.5 95  C 443.5 89.9857142857143  446.4 81.5  458 81.5  C 469.6 81.5  472.5 89.9857142857143  472.5 95  C 472.5 104.629587872444  463.8 110.40734059591  458 120.036928468354  Z " fill-rule="nonzero" fill="#009dd9" stroke="none" />
      <path d="M 458 121  C 452 111  443 105  443 95  C 443 89.8  446 81  458 81  C 470 81  473 89.8  473 95  C 473 105  464 111  458 121  Z M 458 119.073856936707  C 463.6 109.81468119182  472 104.259175744887  472 95  C 472 90.1714285714286  469.2 82  458 82  C 446.8 82  444 90.1714285714286  444 95  C 444 104.259175744887  452.4 109.81468119182  458 119.073856936707  Z " fill-rule="nonzero" fill="#ffffff" stroke="none" />
    </g>
  </defs>
  <g transform="matrix(1 0 0 1 -439 -77 )">
    <use xlink:href="#widget3" filter="url(#filter2)" />
    <use xlink:href="#widget3" />
  </g>
</svg>